<svg xmlns="http://www.w3.org/2000/svg" viewBox="0 0 112.13 30.52"><defs><style>.cls-1{fill:#1d1d1b;stroke:#1d1d1b;stroke-miterlimit:10;}</style></defs><g id="Capa_2" data-name="Capa 2"><g id="Capa_1-2" data-name="Capa 1"><path class="cls-1" d="M20,19.67a3.67,3.67,0,0,1-.55,0,.41.41,0,0,1-.29-.25,9.91,9.91,0,0,1-.61-2.58c-.23-1.43-.46-3.08-.67-4.93q-.69-8.5-1.07-8.67c-.22.46-.54,1.34-1,2.62s-1,3-1.54,5c-.63,2.23-1.12,3.76-1.44,4.6A4,4,0,0,1,12,17a3.16,3.16,0,0,1-.57.39,1.16,1.16,0,0,1-.57.19.62.62,0,0,1-.37-.07,1.15,1.15,0,0,1-.21-.45c-.07-.29-.26-1.19-.55-2.71S9.18,11.46,9,10.24L8.85,9a40,40,0,0,0-.66-4.21A5,5,0,0,0,7.14,7c-.33,1.13-.7,2.73-1.13,4.8q-.62,2.4-1.48,7.83a.81.81,0,0,1-.43.58,1.44,1.44,0,0,1-.73.26c-.31,0-.48-.3-.52-.9s-.15-1.89-.39-3.88S2,12,1.81,10.45a50.65,50.65,0,0,0-1.11-6c-.13-.58-.2-.91-.2-1a.82.82,0,0,1,.42-.71,1.6,1.6,0,0,1,.91-.28c.16,0,.32.6.5,1.8S2.68,7,2.88,8.82l.09,1c.07.64.16,1.3.26,2,.36,3,.57,4.81.6,5.57.39-2.24.83-4.5,1.31-6.76L5.4,9.32A22.12,22.12,0,0,1,6.79,4.66c.51-1.05,1.15-1.58,2-1.58.25,0,.53.65.84,2a34.39,34.39,0,0,1,.72,4.57c.14,1.23.31,2.44.52,3.62a18.09,18.09,0,0,0,.58,2.47c.12-.33.36-1.06.71-2.18s.7-2.18,1-3.19a83.33,83.33,0,0,1,3-8.67A2.9,2.9,0,0,1,16.7.78a1.31,1.31,0,0,1,1-.28c.25,0,.52,1.1.81,3.31s.53,4.75.73,7.65q.78,6.15,1.42,6.7a1.07,1.07,0,0,1,.43.81q0,.21-.33.45A1.18,1.18,0,0,1,20,19.67Z"/><path class="cls-1" d="M24.43,2.79a1.59,1.59,0,0,1-1-.41c-.33-.27-.5-.49-.5-.66a.85.85,0,0,1,.3-.61.92.92,0,0,1,.63-.29,1.69,1.69,0,0,1,.72.46,7.61,7.61,0,0,1,.52.61,1.27,1.27,0,0,1,.29.47C25.38,2.65,25.06,2.79,24.43,2.79Zm.87,18.39c-.28,0-.47-.46-.6-1.31s-.26-2.46-.39-4.84c-.08-1.57-.15-3.1-.2-4.6S24,7.78,24,7a.86.86,0,0,1,.1-.48.42.42,0,0,1,.39-.16.77.77,0,0,1,.84.55A8.09,8.09,0,0,1,25.5,9l0,3.42c0,1.95.06,3.52.17,4.7,0,.05.09.67.26,1.85a12.08,12.08,0,0,1,.21,1.63.53.53,0,0,1-.25.45A.88.88,0,0,1,25.3,21.18Z"/><path class="cls-1" d="M38.75,9.23a.56.56,0,0,1-.39-.18,2.76,2.76,0,0,1-.42-.49,1.82,1.82,0,0,0-.54-.49,1.25,1.25,0,0,0-.68-.2c-.56,0-1.31.74-2.26,2.21a34.12,34.12,0,0,0-2.79,5.59c0,.44.06,1,.11,1.68s.08,1.18.1,1.51L32,20a1.38,1.38,0,0,1-.17.71.68.68,0,0,1-.64.3c-.33,0-.54-.44-.64-1.32s-.15-2.16-.17-3.84c0-.43,0-1,0-1.83s0-1.74-.08-2.84c0-1.66-.08-2.85-.08-3.57Q30.14,7,31,7a.53.53,0,0,1,.59.42A7.8,7.8,0,0,1,31.65,9v4.61a22.78,22.78,0,0,1,1.88-3.86,11.34,11.34,0,0,1,2-2.48,2.76,2.76,0,0,1,1.72-.85,2.61,2.61,0,0,1,1.22.29,2.57,2.57,0,0,1,.93.74,1.43,1.43,0,0,1,.35.85.92.92,0,0,1-.37.6A1,1,0,0,1,38.75,9.23Z"/><path class="cls-1" d="M52.7,9.66l-3,.53-1.88.31c0,1,0,2.06,0,3.17s.07,2.06.13,2.9a11.18,11.18,0,0,0,.41,2.58c.19.6.3.93.32,1a.67.67,0,0,1-.37.54,1.22,1.22,0,0,1-.68.24.43.43,0,0,1-.29-.1.78.78,0,0,1-.2-.33A6.34,6.34,0,0,1,46.86,19c-.11-.73-.19-1.54-.25-2.43s-.1-1.72-.13-2.77,0-2.08,0-3.06c-1.09.17-2.2.38-3.34.64a14.5,14.5,0,0,1-1.83.31,1.11,1.11,0,0,1-.65-.2.63.63,0,0,1-.3-.55c0-.25.08-.42.26-.49a2.23,2.23,0,0,1,.87-.12,7.06,7.06,0,0,0,1.27-.16c.56-.1.92-.18,1.08-.22,1.29-.25,2.17-.41,2.64-.49q0-.62-.06-1.59c0-.89-.06-1.57-.06-2a16,16,0,0,1,.07-1.76A4.18,4.18,0,0,1,46.67,3a.86.86,0,0,1,.87-.58.51.51,0,0,1,.35.09.51.51,0,0,1,.08.32c0,.12,0,.46-.14,1A13.19,13.19,0,0,0,47.68,6c0,.71,0,1.52.06,2.41l0,.78c.87-.14,2.59-.49,5.16-1.07a.64.64,0,0,0,.39-.41c.11-.23.22-.35.34-.35a.92.92,0,0,1,.65.36,1.12,1.12,0,0,1,.33.74.85.85,0,0,1-.42.76A4.16,4.16,0,0,1,52.7,9.66Z"/><path class="cls-1" d="M68.56,19.44a1.45,1.45,0,0,1-.29.79c-.19.3-.38.45-.58.45s-.58-.2-.75-.61a3.43,3.43,0,0,1-.26-1.42c0-.46,0-1.85.08-4.17l0-1.1a1.18,1.18,0,0,0-.34-1c-.87,1.47-1.69,2.74-2.44,3.83a15.75,15.75,0,0,1-2.87,3.06,5.71,5.71,0,0,1-3.66,1.43,1.8,1.8,0,0,1-1.43-.58,2.19,2.19,0,0,1-.51-1.51,7.63,7.63,0,0,1,1-3.17,26.37,26.37,0,0,1,2.67-4.09A22.35,22.35,0,0,1,62.5,8a9.67,9.67,0,0,1,1.71-1.17,2.61,2.61,0,0,1,1.13-.31,1.93,1.93,0,0,1,1,.29,2.7,2.7,0,0,1,.84.81,2.13,2.13,0,0,1,.35,1.19A3.31,3.31,0,0,1,67,10.5l.49-.14c.21,0,.34.26.38.78,0,.31,0,.94.07,1.89s0,1.73.07,2.35,0,1.25.06,1.85,0,1.08.06,1.42a.74.74,0,0,0,.23.42A.65.65,0,0,1,68.56,19.44ZM66,11.29a5.08,5.08,0,0,0,.35-1.89A1.61,1.61,0,0,0,66,8.34a1.17,1.17,0,0,0-1-.45,3.2,3.2,0,0,0-1.85,1,21.12,21.12,0,0,0-2.76,2.94A25,25,0,0,0,58,15.46a6.64,6.64,0,0,0-1,2.85q0,.87.81.87a4.82,4.82,0,0,0,3-1.16,14,14,0,0,0,2.59-2.77C64.27,14.17,65.11,12.85,66,11.29Z"/><path class="cls-1" d="M81.35,27.35a12.27,12.27,0,0,1-2.59,1.93,5,5,0,0,1-2.34.74,1,1,0,0,1-.78-.27,1,1,0,0,1-.23-.66c0-.23.43-.5,1.3-.81a10,10,0,0,0,3.65-2.14,7.34,7.34,0,0,0,1.92-2.64,7.8,7.8,0,0,0,.61-3,20.94,20.94,0,0,0-.22-3.19c-.14-1-.37-2.15-.68-3.57s-.59-2.75-.73-3.8a23.15,23.15,0,0,1-1.52,3.22,23.6,23.6,0,0,1-2.45,3.63,14.48,14.48,0,0,1-2.42,2.46,3.52,3.52,0,0,1-2.1.82,1.41,1.41,0,0,1-1.29-.69,3.52,3.52,0,0,1-.42-1.87,11.53,11.53,0,0,1,1.21-4.64,16.8,16.8,0,0,1,3-4.58,5.16,5.16,0,0,1,3.6-1.91,1.13,1.13,0,0,1,.94.43,1.69,1.69,0,0,1,.33,1c0,.52-.11.78-.32.78s-.13-.07-.22-.22a1.85,1.85,0,0,0-.3-.39A.51.51,0,0,0,79,7.84a4.26,4.26,0,0,0-3,1.65,14.53,14.53,0,0,0-2.52,3.87,9.32,9.32,0,0,0-1,3.64,2.16,2.16,0,0,0,.22,1.13.74.74,0,0,0,.68.35A2.9,2.9,0,0,0,75,17.67a16.7,16.7,0,0,0,2.35-2.55,20,20,0,0,0,2.22-3.59,23.82,23.82,0,0,0,1.52-3.9.7.7,0,0,1,.19-.29.46.46,0,0,1,.3-.11,1,1,0,0,1,.54.16q.27.15.27.33a.77.77,0,0,1,0,.25.64.64,0,0,1-.07.16c.13,1.06.45,2.71,1,5,.36,1.58.64,2.91.82,4a19.19,19.19,0,0,1,.28,3.15,9.32,9.32,0,0,1-.9,4.12A10.4,10.4,0,0,1,81.35,27.35Z"/><path class="cls-1" d="M96.14,9.23a.56.56,0,0,1-.39-.18,2.76,2.76,0,0,1-.42-.49,1.82,1.82,0,0,0-.54-.49,1.25,1.25,0,0,0-.68-.2c-.56,0-1.31.74-2.26,2.21a34.12,34.12,0,0,0-2.79,5.59c0,.44.06,1,.11,1.68s.08,1.18.1,1.51L89.35,20a1.38,1.38,0,0,1-.17.71.68.68,0,0,1-.64.3c-.33,0-.54-.44-.64-1.32s-.15-2.16-.17-3.84c0-.43,0-1,0-1.83s0-1.74-.08-2.84c0-1.66-.08-2.85-.08-3.57q0-.66.81-.66a.53.53,0,0,1,.59.42A7.8,7.8,0,0,1,89,9v4.61a22.78,22.78,0,0,1,1.88-3.86,11.34,11.34,0,0,1,2-2.48,2.76,2.76,0,0,1,1.72-.85,2.61,2.61,0,0,1,1.22.29,2.57,2.57,0,0,1,.93.74,1.43,1.43,0,0,1,.35.85.92.92,0,0,1-.37.6A1,1,0,0,1,96.14,9.23Z"/><path class="cls-1" d="M111.63,19.44a1.54,1.54,0,0,1-.29.79c-.2.3-.39.45-.58.45s-.58-.2-.76-.61a3.6,3.6,0,0,1-.26-1.42q0-.69.09-4.17l0-1.1a1.18,1.18,0,0,0-.35-1c-.87,1.47-1.68,2.74-2.44,3.83a15.45,15.45,0,0,1-2.87,3.06,5.7,5.7,0,0,1-3.65,1.43,1.81,1.81,0,0,1-1.44-.58,2.19,2.19,0,0,1-.51-1.51,7.53,7.53,0,0,1,1.05-3.17,25.66,25.66,0,0,1,2.67-4.09A21.85,21.85,0,0,1,105.56,8a9.32,9.32,0,0,1,1.72-1.17,2.57,2.57,0,0,1,1.13-.31,1.87,1.87,0,0,1,1,.29,2.84,2.84,0,0,1,.85.81,2.12,2.12,0,0,1,.34,1.19,3.22,3.22,0,0,1-.49,1.71l.49-.14c.22,0,.34.26.38.78,0,.31,0,.94.07,1.89s.06,1.73.08,2.35,0,1.25,0,1.85,0,1.08.06,1.42a.81.81,0,0,0,.23.42A.62.62,0,0,1,111.63,19.44Zm-2.53-8.15a5.08,5.08,0,0,0,.35-1.89,1.66,1.66,0,0,0-.36-1.06,1.19,1.19,0,0,0-1-.45,3.22,3.22,0,0,0-1.86,1,20.53,20.53,0,0,0-2.75,2.94,25.11,25.11,0,0,0-2.41,3.64,6.64,6.64,0,0,0-1,2.85q0,.87.81.87A4.8,4.8,0,0,0,104,18a14,14,0,0,0,2.6-2.77C107.33,14.17,108.18,12.85,109.1,11.29Z"/></g></g></svg>