<svg xmlns="http://www.w3.org/2000/svg" viewBox="0 0 51.3 51.41"><defs><style>.cls-1{fill:#805d93;stroke:#805d93;stroke-miterlimit:10;}</style></defs><g id="Capa_2" data-name="Capa 2"><g id="Capa_1-2" data-name="Capa 1"><path class="cls-1" d="M28.05,27.6a4,4,0,0,1-.78-.06.56.56,0,0,1-.41-.35A15,15,0,0,1,26,23.54q-.49-3-.94-7-1-12-1.52-12.26c-.3.66-.76,1.9-1.39,3.71S20.79,12.21,20,15.14c-.91,3.14-1.59,5.31-2.06,6.5a5.57,5.57,0,0,1-1.23,2.19,4.2,4.2,0,0,1-.79.55,1.75,1.75,0,0,1-.8.27.94.94,0,0,1-.54-.1,1.54,1.54,0,0,1-.28-.64c-.11-.41-.37-1.69-.78-3.83s-.73-4.08-.95-5.8l-.24-1.73a51.16,51.16,0,0,0-1-5.94A7.11,7.11,0,0,0,9.89,9.7c-.47,1.6-1,3.87-1.6,6.79Q7.44,19.9,6.2,27.56a1.15,1.15,0,0,1-.62.82,1.91,1.91,0,0,1-1,.37c-.44,0-.68-.42-.74-1.27S3.61,24.8,3.27,22s-.65-5.29-.93-7.42A71.12,71.12,0,0,0,.79,6.12,13.82,13.82,0,0,1,.5,4.72a1.17,1.17,0,0,1,.59-1,2.33,2.33,0,0,1,1.3-.39c.21,0,.45.85.69,2.54s.51,3.83.78,6.4L4,13.62c.11.9.24,1.84.37,2.83q.78,6.27.86,7.87Q6,19.56,7.06,14.77L7.43,13a30.49,30.49,0,0,1,2-6.58c.71-1.49,1.62-2.23,2.74-2.23.36,0,.76.92,1.19,2.77a49.66,49.66,0,0,1,1,6.45c.19,1.75.43,3.46.74,5.13A22,22,0,0,0,15.92,22c.16-.46.49-1.49,1-3.07s1-3.09,1.41-4.51A120.13,120.13,0,0,1,22.6,2.14,4.57,4.57,0,0,1,23.4.89,1.92,1.92,0,0,1,24.77.5c.36,0,.74,1.56,1.15,4.67s.75,6.73,1,10.83q1.11,8.68,2,9.47a1.53,1.53,0,0,1,.62,1.15c0,.19-.16.4-.47.63A1.77,1.77,0,0,1,28.05,27.6Z"/><path class="cls-1" d="M50.8,50.29a.51.51,0,0,1-.31.46,1.55,1.55,0,0,1-.68.16,2.24,2.24,0,0,1-1.5-.51,1.89,1.89,0,0,1-.59-1.5q0-5.16.08-8.45l.08-3.64c.09-2.55.13-4.45.13-5.7Q43.9,40.25,40,44.9t-8.81,4.66q-3.61,0-5.29-2.22t-1.68-6.89A28.43,28.43,0,0,1,27,28.18a28.4,28.4,0,0,1,7.27-9.78q4.45-3.78,9-3.78a2,2,0,0,1,2,.91,3.77,3.77,0,0,1,.51,1.88A5.74,5.74,0,0,1,45.57,19c-.13.4-.27.6-.43.6s-.24-.13-.31-.37A12.75,12.75,0,0,1,44.6,18a3.12,3.12,0,0,0-.41-1.34,1.15,1.15,0,0,0-1-.43q-3.78,0-7.77,3.69a29.48,29.48,0,0,0-6.64,9.33,25.74,25.74,0,0,0-2.65,11,10.48,10.48,0,0,0,1.13,5.31c.75,1.27,2.11,1.9,4.08,1.9a8.7,8.7,0,0,0,6-2.5,25.81,25.81,0,0,0,4.89-6.17q2.16-3.66,5.11-9.73a53,53,0,0,0-5.86,1.64l-1.6.53-1.52.49c-1,.36-1.83.62-2.46.8a5.92,5.92,0,0,1-1.56.27.7.7,0,0,1-.63-.39,1.66,1.66,0,0,1-.23-.84q0-.59,1.68-1.17a44.16,44.16,0,0,1,5-1.33c.87-.2,2.13-.52,3.77-1,.27-.08,1.1-.3,2.48-.65a13.62,13.62,0,0,1,2.89-.54h.47a.58.58,0,0,1,.55.31,2.11,2.11,0,0,1,.17,1,.81.81,0,0,1-.49.66l0,3.16q-.12,3.2-.12,7V47a8.29,8.29,0,0,0,.29,2,2.33,2.33,0,0,0,.45.86A.8.8,0,0,1,50.8,50.29Z"/></g></g></svg>